<svg xmlns="http://www.w3.org/2000/svg" viewBox="0 0 216.12 208.17"><defs><style>.cls-1{fill:#0f204b;}.cls-2{fill:#003478;}.cls-3{fill:#0066a1;}.cls-4,.cls-9{fill:none;stroke-linecap:round;stroke-miterlimit:10;}.cls-4{stroke:#0066a1;stroke-width:8.36px;}.cls-5{font-size:49.79px;fill:#fff;font-family:CentraleSans-XBold, Centrale Sans;font-weight:700;}.cls-6{letter-spacing:0.08em;}.cls-7{font-size:20.89px;font-family:CentraleSans-Book, Centrale Sans;font-weight:400;}.cls-8{letter-spacing:-0.01em;}.cls-9{stroke:#fff;stroke-width:2.09px;}</style></defs><title>Asset 1</title><g id="Layer_2" data-name="Layer 2"><g id="Layer_1-2" data-name="Layer 1"><circle class="cls-1" cx="91.53" cy="116.64" r="91.53"/><path class="cls-2" d="M155.06,50.74A91.24,91.24,0,0,0,91.53,25.1L92.93,116Z"/><path class="cls-3" d="M183.07,116.64a91.26,91.26,0,0,0-28-65.9L92.93,116Z"/><path class="cls-4" d="M199.24,149A111.49,111.49,0,0,0,92.93,4.18"/><polygon class="cls-3" points="216.12 150.72 189.63 170.94 185.36 137.89 216.12 150.72"/><text class="cls-5" transform="translate(42.22 125.88)"><tspan class="cls-6">2–</tspan><tspan x="68.01" y="0">4</tspan><tspan class="cls-7"><tspan x="0" y="25.76">hours</tspan><tspan x="55" y="25.76"> less</tspan></tspan></text><line class="cls-9" x1="40.06" y1="167.45" x2="30.7" y2="176.8"/><line class="cls-9" x1="91.53" y1="29.94" x2="91.53" y2="43.17"/><line class="cls-9" x1="177.56" y1="115.97" x2="164.33" y2="115.97"/><line class="cls-9" x1="18.73" y1="115.97" x2="5.5" y2="115.97"/><line class="cls-9" x1="152.37" y1="176.8" x2="143.01" y2="167.45"/><line class="cls-9" x1="124.46" y1="36.49" x2="119.39" y2="48.71"/><line class="cls-9" x1="63.67" y1="183.23" x2="58.61" y2="195.45"/><line class="cls-9" x1="171.01" y1="148.89" x2="158.79" y2="143.83"/><line class="cls-9" x1="24.27" y1="88.11" x2="12.05" y2="83.05"/><line class="cls-9" x1="151.11" y1="54.89" x2="141.76" y2="64.24"/><line class="cls-9" x1="151.11" y1="176.55" x2="141.76" y2="167.2"/><line class="cls-9" x1="38.8" y1="64.24" x2="29.45" y2="54.89"/><line class="cls-9" x1="90.28" y1="201.75" x2="90.28" y2="188.52"/><line class="cls-9" x1="169.76" y1="82.8" x2="157.54" y2="87.86"/><line class="cls-9" x1="23.02" y1="143.58" x2="10.8" y2="148.64"/><line class="cls-9" x1="123.2" y1="195.2" x2="118.14" y2="182.98"/><line class="cls-9" x1="62.42" y1="48.46" x2="57.36" y2="36.24"/></g></g></svg>
