<svg xmlns="http://www.w3.org/2000/svg" viewBox="0 0 520 116.43"><defs><style>.cls-1{fill:#003478;}.cls-2{fill:#b3c8e6;}</style></defs><title>Asset 5</title><g id="Layer_2" data-name="Layer 2"><g id="Layer_1-2" data-name="Layer 1"><path class="cls-1" d="M36.82,32.16a48.84,48.84,0,0,0-.91-7.72,8.25,8.25,0,0,0-8.45-6.8q-8.78,6.15-17.55,0a8.24,8.24,0,0,0-8.44,6.8,58.66,58.66,0,0,0-.92,7.73c-.21,3-.23,6.1-.38,9.15C-.11,47.22,0,53.14.06,59.06a3.33,3.33,0,0,0,3.33,3.47c.5,0,1.06-.18,1.57.41.11,2.79.1,5.68.37,8.58.36,3.7.33,7.45.43,11.17.16,6.12.65,12.22.69,18.35,0,2.36.36,4.75.31,7.13,0,.64.53,1.07.41,1.72-1.25,1.54-2.16,3.21-1.55,5.63,0,.41.91.33,1.16.91H9c1.3-.92,2.88-1.41,3.77-2.94.64-1.11,1.41-2.1,1.19-3.31.39-.61,1.09-.59,1.17-.94.73-3,.53-5.86.62-8.69.15-4.54.35-9.09.57-13.62.14-2.82.32-5.65.3-8.47,0-2.1.56-4.12.46-6.25a6.79,6.79,0,0,1,3-.19c.19,1.59.45,3.11.54,4.64.19,3.5.24,7,.36,10.49.18,5.37.73,10.72.59,16.09a25.49,25.49,0,0,0,.56,5.81c.15.52.81.54,1.11,1a6.92,6.92,0,0,0,4.37,6c.27.12.57.15.7.47h2.24c.28-.55,1.09-.55,1.18-1,.62-2.44-.41-4.15-1.62-5.69a8.1,8.1,0,0,0,.46-1.61c0-2.3.15-4.6.33-6.91.31-3.78.07-7.59.48-11.4.35-3.32.24-6.7.37-10,.2-5,.6-10,.61-15,0-.72-.22-1.49.24-2.16a2.23,2.23,0,0,1,.45-.13c3.27-.2,4.2-1.19,4.25-4.38C37.48,49.49,37.2,40.82,36.82,32.16Z"/><circle class="cls-1" cx="18.69" cy="8.46" r="8.46" transform="translate(-1.44 4.52) rotate(-13.28)"/><path class="cls-1" d="M90.45,32.16a50,50,0,0,0-.91-7.72,8.26,8.26,0,0,0-8.45-6.8q-8.78,6.15-17.55,0a8.25,8.25,0,0,0-8.45,6.8,62.24,62.24,0,0,0-.92,7.73c-.21,3-.23,6.1-.37,9.15-.29,5.9-.14,11.82-.11,17.74A3.32,3.32,0,0,0,57,62.53c.5,0,1.06-.18,1.56.41.12,2.79.1,5.68.38,8.58.35,3.7.33,7.45.43,11.17.16,6.12.65,12.22.68,18.35,0,2.36.37,4.75.32,7.13,0,.64.53,1.07.4,1.72a6,6,0,0,0-1.55,5.63c0,.41.92.33,1.17.91h2.25c1.29-.92,2.87-1.41,3.76-2.94.64-1.11,1.42-2.1,1.2-3.31.39-.61,1.09-.59,1.16-.94.74-3,.54-5.86.63-8.69.15-4.54.34-9.09.57-13.62.13-2.82.32-5.65.29-8.47,0-2.1.57-4.12.46-6.25a6.8,6.8,0,0,1,3-.19c.19,1.59.46,3.11.54,4.64.2,3.5.25,7,.36,10.49.18,5.37.73,10.72.6,16.09a24.93,24.93,0,0,0,.55,5.81c.16.52.82.54,1.11,1a7,7,0,0,0,4.38,6c.27.12.57.15.69.47h2.25c.27-.55,1.09-.55,1.18-1,.61-2.44-.42-4.15-1.62-5.69a8,8,0,0,0,.45-1.61c0-2.3.15-4.6.34-6.91.3-3.78.07-7.59.47-11.4.36-3.32.25-6.7.38-10,.19-5,.59-10,.61-15a3.56,3.56,0,0,1,.23-2.16,2.43,2.43,0,0,1,.45-.13c3.27-.2,4.2-1.19,4.25-4.38C91.1,49.49,90.82,40.82,90.45,32.16Z"/><circle class="cls-1" cx="72.31" cy="8.46" r="8.46" transform="translate(-0.01 16.84) rotate(-13.28)"/><path class="cls-1" d="M144.07,32.16a48.84,48.84,0,0,0-.91-7.72,8.25,8.25,0,0,0-8.45-6.8q-8.77,6.15-17.55,0a8.24,8.24,0,0,0-8.44,6.8,58.66,58.66,0,0,0-.92,7.73c-.21,3-.23,6.1-.38,9.15-.28,5.9-.14,11.82-.11,17.74a3.33,3.33,0,0,0,3.33,3.47c.5,0,1.06-.18,1.57.41.11,2.79.1,5.68.37,8.58.36,3.7.33,7.45.43,11.17.16,6.12.65,12.22.69,18.35,0,2.36.36,4.75.31,7.13,0,.64.53,1.07.41,1.72-1.25,1.54-2.16,3.21-1.55,5.63,0,.41.91.33,1.17.91h2.24c1.3-.92,2.88-1.41,3.77-2.94.64-1.11,1.41-2.1,1.19-3.31.39-.61,1.09-.59,1.17-.94.73-3,.53-5.86.63-8.69.14-4.54.34-9.09.56-13.62.14-2.82.32-5.65.3-8.47,0-2.1.56-4.12.46-6.25a6.79,6.79,0,0,1,3-.19c.19,1.59.45,3.11.54,4.64.19,3.5.24,7,.36,10.49.18,5.37.73,10.72.6,16.09a24.93,24.93,0,0,0,.55,5.81c.15.52.81.54,1.11,1a6.92,6.92,0,0,0,4.37,6c.27.12.57.15.7.47h2.24c.28-.55,1.09-.55,1.18-1,.62-2.44-.41-4.15-1.62-5.69a8.1,8.1,0,0,0,.46-1.61c0-2.3.15-4.6.33-6.91.31-3.78.07-7.59.48-11.4.35-3.32.24-6.7.37-10,.2-5,.6-10,.61-15,0-.72-.22-1.49.24-2.16a2.23,2.23,0,0,1,.45-.13c3.27-.2,4.2-1.19,4.25-4.38C144.73,49.49,144.45,40.82,144.07,32.16Z"/><circle class="cls-1" cx="125.94" cy="8.46" r="8.46" transform="translate(1.42 29.16) rotate(-13.28)"/><path class="cls-2" d="M197.7,32.16a50,50,0,0,0-.91-7.72,8.26,8.26,0,0,0-8.45-6.8q-8.78,6.15-17.55,0a8.25,8.25,0,0,0-8.45,6.8,62.24,62.24,0,0,0-.92,7.73c-.21,3-.23,6.1-.37,9.15-.29,5.9-.14,11.82-.11,17.74a3.32,3.32,0,0,0,3.33,3.47c.5,0,1.06-.18,1.56.41.12,2.79.1,5.68.38,8.58.35,3.7.33,7.45.43,11.17.16,6.12.65,12.22.68,18.35,0,2.36.37,4.75.32,7.13,0,.64.53,1.07.4,1.72a6,6,0,0,0-1.55,5.63c0,.41.92.33,1.17.91h2.25c1.29-.92,2.87-1.41,3.76-2.94.64-1.11,1.42-2.1,1.2-3.31.39-.61,1.09-.59,1.16-.94.74-3,.54-5.86.63-8.69.15-4.54.34-9.09.57-13.62.14-2.82.32-5.65.29-8.47,0-2.1.57-4.12.46-6.25a6.8,6.8,0,0,1,3-.19c.19,1.59.46,3.11.54,4.64.2,3.5.25,7,.36,10.49.18,5.37.73,10.72.6,16.09a24.93,24.93,0,0,0,.55,5.81c.16.52.82.54,1.11,1a7,7,0,0,0,4.38,6c.27.12.57.15.69.47h2.25c.27-.55,1.09-.55,1.18-1,.61-2.44-.42-4.15-1.62-5.69a8,8,0,0,0,.45-1.61c0-2.3.15-4.6.34-6.91.3-3.78.07-7.59.47-11.4.36-3.32.25-6.7.38-10,.19-5,.59-10,.61-15a3.56,3.56,0,0,1,.23-2.16,2.43,2.43,0,0,1,.45-.13c3.27-.2,4.2-1.19,4.25-4.38C198.35,49.49,198.07,40.82,197.7,32.16Z"/><circle class="cls-2" cx="179.56" cy="8.46" r="8.46" transform="translate(2.86 41.48) rotate(-13.28)"/><path class="cls-2" d="M251.32,32.16a48.84,48.84,0,0,0-.91-7.72,8.25,8.25,0,0,0-8.45-6.8q-8.78,6.15-17.55,0a8.24,8.24,0,0,0-8.44,6.8,58.66,58.66,0,0,0-.92,7.73c-.21,3-.23,6.1-.38,9.15-.28,5.9-.14,11.82-.11,17.74a3.33,3.33,0,0,0,3.33,3.47c.5,0,1.06-.18,1.57.41.11,2.79.1,5.68.37,8.58.36,3.7.33,7.45.43,11.17.16,6.12.65,12.22.69,18.35,0,2.36.36,4.75.31,7.13,0,.64.54,1.07.41,1.72-1.25,1.54-2.16,3.21-1.55,5.63,0,.41.91.33,1.17.91h2.24c1.3-.92,2.88-1.41,3.77-2.94.64-1.11,1.41-2.1,1.19-3.31.39-.61,1.09-.59,1.17-.94.73-3,.53-5.86.63-8.69.14-4.54.34-9.09.56-13.62.14-2.82.32-5.65.3-8.47,0-2.1.56-4.12.46-6.25a6.79,6.79,0,0,1,3-.19c.19,1.59.45,3.11.54,4.64.19,3.5.24,7,.36,10.49.18,5.37.73,10.72.6,16.09a24.93,24.93,0,0,0,.55,5.81c.15.52.81.54,1.11,1a6.92,6.92,0,0,0,4.37,6c.27.12.57.15.7.47h2.24c.28-.55,1.09-.55,1.18-1,.62-2.44-.41-4.15-1.62-5.69a8.1,8.1,0,0,0,.46-1.61c0-2.3.15-4.6.33-6.91.31-3.78.07-7.59.48-11.4.35-3.32.24-6.7.37-10,.2-5,.6-10,.61-15,0-.72-.22-1.49.24-2.16a2.23,2.23,0,0,1,.45-.13c3.27-.2,4.2-1.19,4.25-4.38C252,49.49,251.7,40.82,251.32,32.16Z"/><circle class="cls-2" cx="233.19" cy="8.46" r="8.46" transform="translate(4.29 53.8) rotate(-13.28)"/><path class="cls-2" d="M305,32.16a50,50,0,0,0-.91-7.72,8.25,8.25,0,0,0-8.45-6.8q-8.77,6.15-17.55,0a8.25,8.25,0,0,0-8.45,6.8,62.24,62.24,0,0,0-.92,7.73c-.21,3-.23,6.1-.37,9.15-.29,5.9-.14,11.82-.11,17.74a3.32,3.32,0,0,0,3.33,3.47c.5,0,1.06-.18,1.56.41.12,2.79.1,5.68.38,8.58.36,3.7.33,7.45.43,11.17.16,6.12.65,12.22.68,18.35,0,2.36.37,4.75.32,7.13,0,.64.53,1.07.4,1.72a6,6,0,0,0-1.55,5.63c0,.41.92.33,1.17.91h2.25c1.29-.92,2.87-1.41,3.76-2.94.64-1.11,1.42-2.1,1.2-3.31.39-.61,1.09-.59,1.16-.94.74-3,.54-5.86.63-8.69.15-4.54.34-9.09.57-13.62.14-2.82.32-5.65.29-8.47,0-2.1.57-4.12.46-6.25a6.8,6.8,0,0,1,3-.19c.19,1.59.46,3.11.54,4.64.2,3.5.25,7,.36,10.49.18,5.37.73,10.72.6,16.09a24.93,24.93,0,0,0,.55,5.81c.16.52.82.54,1.11,1a7,7,0,0,0,4.38,6c.27.12.57.15.69.47h2.25c.27-.55,1.09-.55,1.18-1,.61-2.44-.42-4.15-1.62-5.69a8,8,0,0,0,.45-1.61c0-2.3.16-4.6.34-6.91.3-3.78.07-7.59.47-11.4.36-3.32.25-6.7.38-10,.19-5,.6-10,.61-15,0-.72-.22-1.49.24-2.16a2.15,2.15,0,0,1,.44-.13c3.27-.2,4.2-1.19,4.25-4.38C305.6,49.49,305.33,40.82,305,32.16Z"/><circle class="cls-2" cx="286.81" cy="8.46" r="8.46" transform="translate(5.73 66.12) rotate(-13.28)"/><path class="cls-2" d="M358.57,32.16a48.84,48.84,0,0,0-.91-7.72,8.24,8.24,0,0,0-8.44-6.8q-8.79,6.15-17.56,0a8.24,8.24,0,0,0-8.44,6.8,58.66,58.66,0,0,0-.92,7.73c-.21,3-.23,6.1-.38,9.15-.28,5.9-.13,11.82-.11,17.74a3.33,3.33,0,0,0,3.34,3.47c.49,0,1.05-.18,1.56.41.11,2.79.1,5.68.37,8.58.36,3.7.33,7.45.43,11.17.17,6.12.65,12.22.69,18.35,0,2.36.36,4.75.31,7.13,0,.64.54,1.07.41,1.72-1.25,1.54-2.16,3.21-1.55,5.63,0,.41.91.33,1.17.91h2.24c1.3-.92,2.88-1.41,3.77-2.94.64-1.11,1.41-2.1,1.19-3.31.39-.61,1.09-.59,1.17-.94.73-3,.53-5.86.63-8.69.14-4.54.34-9.09.56-13.62.14-2.82.32-5.65.3-8.47,0-2.1.56-4.12.46-6.25a6.79,6.79,0,0,1,3-.19c.19,1.59.45,3.11.54,4.64.19,3.5.24,7,.36,10.49.18,5.37.73,10.72.6,16.09a24.93,24.93,0,0,0,.55,5.81c.15.52.81.54,1.11,1a6.92,6.92,0,0,0,4.37,6c.27.12.57.15.7.47h2.24c.28-.55,1.09-.55,1.18-1,.62-2.44-.41-4.15-1.62-5.69a8.1,8.1,0,0,0,.46-1.61c0-2.3.15-4.6.33-6.91.31-3.78.07-7.59.48-11.4.35-3.32.24-6.7.37-10,.2-5,.6-10,.61-15,0-.72-.22-1.49.24-2.16a2.43,2.43,0,0,1,.45-.13c3.27-.2,4.2-1.19,4.25-4.38C359.23,49.49,359,40.82,358.57,32.16Z"/><circle class="cls-2" cx="340.44" cy="8.46" r="8.46" transform="translate(7.16 78.44) rotate(-13.28)"/><path class="cls-2" d="M412.2,32.16a50,50,0,0,0-.91-7.72,8.25,8.25,0,0,0-8.45-6.8q-8.77,6.15-17.55,0a8.25,8.25,0,0,0-8.45,6.8,62.24,62.24,0,0,0-.92,7.73c-.21,3-.23,6.1-.37,9.15-.29,5.9-.14,11.82-.11,17.74a3.32,3.32,0,0,0,3.33,3.47c.5,0,1.06-.18,1.56.41.12,2.79.1,5.68.38,8.58.36,3.7.33,7.45.43,11.17.16,6.12.65,12.22.68,18.35,0,2.36.37,4.75.32,7.13,0,.64.53,1.07.4,1.72a6,6,0,0,0-1.55,5.63c0,.41.92.33,1.17.91h2.25c1.29-.92,2.87-1.41,3.76-2.94.64-1.11,1.42-2.1,1.2-3.31.39-.61,1.09-.59,1.16-.94.74-3,.54-5.86.63-8.69.15-4.54.34-9.09.57-13.62.14-2.82.32-5.65.29-8.47,0-2.1.57-4.12.46-6.25a6.81,6.81,0,0,1,3-.19c.19,1.59.46,3.11.54,4.64.2,3.5.25,7,.37,10.49.17,5.37.72,10.72.59,16.09a24.93,24.93,0,0,0,.55,5.81c.16.52.82.54,1.11,1a7,7,0,0,0,4.38,6c.27.12.57.15.69.47H406c.27-.55,1.09-.55,1.18-1,.61-2.44-.42-4.15-1.62-5.69a8,8,0,0,0,.45-1.61c0-2.3.16-4.6.34-6.91.3-3.78.07-7.59.47-11.4.36-3.32.25-6.7.38-10,.19-5,.6-10,.61-15,0-.72-.22-1.49.24-2.16a2.15,2.15,0,0,1,.44-.13c3.27-.2,4.2-1.19,4.25-4.38C412.85,49.49,412.58,40.82,412.2,32.16Z"/><circle class="cls-2" cx="394.06" cy="8.46" r="8.46" transform="translate(8.6 90.76) rotate(-13.28)"/><path class="cls-2" d="M465.83,32.16a50.06,50.06,0,0,0-.92-7.72,8.24,8.24,0,0,0-8.44-6.8q-8.79,6.15-17.56,0a8.24,8.24,0,0,0-8.44,6.8,58.66,58.66,0,0,0-.92,7.73c-.21,3-.23,6.1-.38,9.15-.28,5.9-.13,11.82-.11,17.74a3.33,3.33,0,0,0,3.34,3.47c.49,0,1.05-.18,1.56.41.11,2.79.1,5.68.38,8.58.35,3.7.32,7.45.42,11.17.17,6.12.65,12.22.69,18.35,0,2.36.36,4.75.31,7.13,0,.64.54,1.07.41,1.72-1.25,1.54-2.16,3.21-1.55,5.63,0,.41.91.33,1.17.91H438c1.3-.92,2.88-1.41,3.77-2.94.64-1.11,1.41-2.1,1.19-3.31.39-.61,1.09-.59,1.17-.94.73-3,.53-5.86.63-8.69.15-4.54.34-9.09.56-13.62.14-2.82.32-5.65.3-8.47,0-2.1.56-4.12.46-6.25a6.79,6.79,0,0,1,3-.19c.19,1.59.45,3.11.54,4.64.19,3.5.25,7,.36,10.49.18,5.37.73,10.72.6,16.09a24.93,24.93,0,0,0,.55,5.81c.15.52.81.54,1.11,1a6.92,6.92,0,0,0,4.38,6c.26.12.56.15.69.47h2.24c.28-.55,1.09-.55,1.18-1,.62-2.44-.41-4.15-1.62-5.69a8.1,8.1,0,0,0,.46-1.61c0-2.3.15-4.6.33-6.91.31-3.78.07-7.59.48-11.4.35-3.32.24-6.7.37-10,.2-5,.6-10,.61-15,0-.72-.22-1.49.24-2.16a2.43,2.43,0,0,1,.45-.13c3.27-.2,4.2-1.19,4.25-4.38C466.48,49.49,466.2,40.82,465.83,32.16Z"/><circle class="cls-2" cx="447.69" cy="8.46" r="8.46" transform="translate(10.03 103.08) rotate(-13.28)"/><path class="cls-2" d="M519.45,32.16a50,50,0,0,0-.91-7.72,8.25,8.25,0,0,0-8.45-6.8q-8.77,6.15-17.55,0a8.25,8.25,0,0,0-8.45,6.8,60.39,60.39,0,0,0-.91,7.73c-.22,3-.24,6.1-.38,9.15-.28,5.9-.14,11.82-.11,17.74A3.32,3.32,0,0,0,486,62.53c.5,0,1.06-.18,1.56.41.12,2.79.1,5.68.38,8.58.36,3.7.33,7.45.43,11.17.16,6.12.65,12.22.68,18.35,0,2.36.37,4.75.32,7.13,0,.64.53,1.07.4,1.72a6,6,0,0,0-1.55,5.63c0,.41.92.33,1.17.91h2.25c1.3-.92,2.87-1.41,3.76-2.94.64-1.11,1.42-2.1,1.2-3.31.39-.61,1.09-.59,1.16-.94.74-3,.54-5.86.63-8.69.15-4.54.34-9.09.57-13.62.14-2.82.32-5.65.3-8.47,0-2.1.56-4.12.45-6.25a6.81,6.81,0,0,1,3-.19c.19,1.59.46,3.11.54,4.64.2,3.5.25,7,.37,10.49.17,5.37.72,10.72.59,16.09a24.93,24.93,0,0,0,.55,5.81c.16.52.82.54,1.11,1a7,7,0,0,0,4.38,6c.27.12.57.15.69.47h2.25c.27-.55,1.09-.55,1.18-1,.61-2.44-.41-4.15-1.62-5.69a8,8,0,0,0,.45-1.61c0-2.3.16-4.6.34-6.91.3-3.78.07-7.59.47-11.4.36-3.32.25-6.7.38-10,.19-5,.6-10,.61-15,0-.72-.22-1.49.24-2.16a2.15,2.15,0,0,1,.44-.13c3.27-.2,4.2-1.19,4.25-4.38C520.1,49.49,519.83,40.82,519.45,32.16Z"/><circle class="cls-2" cx="501.31" cy="8.46" r="8.46" transform="translate(11.47 115.41) rotate(-13.28)"/></g></g></svg>