<svg xmlns="http://www.w3.org/2000/svg" viewBox="0 0 260 152.69"><defs><style>.cls-1{fill:#003478;}.cls-2{fill:#b3c8e6;}</style></defs><title>Asset 6</title><g id="Layer_2" data-name="Layer 2"><g id="Layer_1-2" data-name="Layer 1"><path class="cls-1" d="M48.29,42.18A65,65,0,0,0,47.1,32.05,10.83,10.83,0,0,0,36,23.13q-11.51,8.07-23,0A10.83,10.83,0,0,0,1.92,32.05,79.77,79.77,0,0,0,.72,42.18c-.28,4-.3,8-.5,12C-.15,61.93,0,69.7.08,77.45c0,2.69,1.67,4.28,4.37,4.55.65.07,1.39-.23,2.05.55.15,3.65.13,7.44.5,11.24.46,4.86.42,9.77.56,14.65.21,8,.85,16,.9,24.08,0,3.09.47,6.22.41,9.35,0,.83.7,1.4.53,2.24-1.64,2-2.83,4.22-2,7.4,0,.53,1.2.43,1.53,1.18h2.94c1.71-1.2,3.78-1.85,4.94-3.85.84-1.45,1.86-2.76,1.57-4.34.51-.8,1.43-.77,1.53-1.24,1-4,.7-7.69.82-11.39q.3-8.94.74-17.86c.19-3.71.43-7.41.39-11.12,0-2.75.74-5.4.6-8.19a9.08,9.08,0,0,1,3.95-.25c.25,2.09.6,4.08.71,6.09.26,4.58.33,9.18.48,13.76.23,7,.95,14,.78,21.1a32.72,32.72,0,0,0,.72,7.61c.2.68,1.07.71,1.46,1.25.33,3.79,2.42,6.27,5.74,7.82.35.16.74.2.91.61h2.94c.36-.72,1.43-.72,1.55-1.26.8-3.19-.54-5.44-2.13-7.46a10.07,10.07,0,0,0,.6-2.1c0-3,.2-6,.44-9.07.4-5,.09-10,.62-14.94.47-4.37.32-8.79.49-13.18.26-6.55.79-13.1.8-19.66,0-.94-.28-2,.32-2.82a2.62,2.62,0,0,1,.58-.17c4.29-.27,5.51-1.57,5.58-5.75C49.15,64.9,48.79,53.54,48.29,42.18Z"/><circle class="cls-1" cx="24.51" cy="11.1" r="11.1" transform="translate(-1.89 5.93) rotate(-13.28)"/><path class="cls-1" d="M118.62,42.18a65,65,0,0,0-1.2-10.13,10.81,10.81,0,0,0-11.07-8.92q-11.52,8.07-23,0a10.83,10.83,0,0,0-11.08,8.92,79.77,79.77,0,0,0-1.2,10.13c-.28,4-.31,8-.5,12-.37,7.74-.18,15.51-.14,23.26,0,2.69,1.67,4.28,4.37,4.55.65.07,1.39-.23,2,.55C77,86.2,77,90,77.32,93.79c.47,4.86.43,9.77.56,14.65.22,8,.86,16,.91,24.08,0,3.09.47,6.22.4,9.35,0,.83.7,1.4.54,2.24-1.64,2-2.83,4.22-2,7.4,0,.53,1.19.43,1.53,1.18h2.94c1.7-1.2,3.78-1.85,4.94-3.85.84-1.45,1.86-2.76,1.57-4.34.51-.8,1.43-.77,1.52-1.24,1-4,.71-7.69.83-11.39q.3-8.94.74-17.86c.18-3.71.42-7.41.39-11.12,0-2.75.74-5.4.6-8.19a9.08,9.08,0,0,1,3.95-.25c.25,2.09.6,4.08.71,6.09.25,4.58.32,9.18.47,13.76.24,7,1,14,.79,21.1A32.18,32.18,0,0,0,99.4,143c.2.68,1.07.71,1.46,1.25.33,3.79,2.42,6.27,5.74,7.82.35.16.74.2.9.61h3c.36-.72,1.43-.72,1.55-1.26.8-3.19-.55-5.44-2.13-7.46a10.72,10.72,0,0,0,.6-2.1c0-3,.2-6,.44-9.07.4-5,.09-10,.62-14.94.47-4.37.32-8.79.49-13.18.26-6.55.79-13.1.8-19.66,0-.94-.29-2,.31-2.82a2.55,2.55,0,0,1,.59-.17c4.29-.27,5.51-1.57,5.57-5.75C119.48,64.9,119.11,53.54,118.62,42.18Z"/><circle class="cls-1" cx="94.84" cy="11.1" r="11.1" transform="translate(-0.01 22.09) rotate(-13.28)"/><path class="cls-1" d="M189,42.18a65,65,0,0,0-1.2-10.13,10.82,10.82,0,0,0-11.07-8.92q-11.52,8.07-23,0a10.82,10.82,0,0,0-11.08,8.92,78,78,0,0,0-1.2,10.13c-.28,4-.31,8-.5,12-.37,7.74-.18,15.51-.14,23.26,0,2.69,1.67,4.28,4.37,4.55.65.07,1.38-.23,2,.55.15,3.65.13,7.44.49,11.24.47,4.86.43,9.77.56,14.65.22,8,.85,16,.9,24.08,0,3.09.48,6.22.41,9.35,0,.83.7,1.4.53,2.24-1.63,2-2.82,4.22-2,7.4,0,.53,1.2.43,1.54,1.18h2.94c1.7-1.2,3.77-1.85,4.94-3.85.84-1.45,1.86-2.76,1.57-4.34.51-.8,1.42-.77,1.52-1.24,1-4,.71-7.69.83-11.39.19-6,.45-11.92.74-17.86.18-3.71.42-7.41.39-11.12,0-2.75.74-5.4.6-8.19,1.33-.54,2.56-.29,3.95-.25.25,2.09.6,4.08.71,6.09.25,4.58.32,9.18.47,13.76.23,7,1,14,.78,21.1a32.73,32.73,0,0,0,.73,7.61c.2.68,1.07.71,1.45,1.25.34,3.79,2.43,6.27,5.74,7.82.36.16.75.2.91.61h2.95c.36-.72,1.43-.72,1.55-1.26.8-3.19-.55-5.44-2.13-7.46a10.72,10.72,0,0,0,.6-2.1c0-3,.2-6,.44-9.07.4-5,.09-10,.62-14.94.46-4.37.32-8.79.49-13.18.25-6.55.78-13.1.8-19.66,0-.94-.29-2,.31-2.82a2.55,2.55,0,0,1,.59-.17c4.29-.27,5.51-1.57,5.57-5.75C189.81,64.9,189.44,53.54,189,42.18Z"/><circle class="cls-1" cx="165.16" cy="11.1" r="11.1" transform="translate(1.87 38.24) rotate(-13.28)"/><path class="cls-2" d="M259.28,42.18a65,65,0,0,0-1.2-10.13A10.82,10.82,0,0,0,247,23.13q-11.5,8.07-23,0a10.82,10.82,0,0,0-11.08,8.92,78,78,0,0,0-1.21,10.13c-.28,4-.3,8-.49,12-.37,7.74-.18,15.51-.14,23.26,0,2.69,1.67,4.28,4.37,4.55.65.07,1.38-.23,2.05.55.15,3.65.13,7.44.49,11.24.47,4.86.43,9.77.56,14.65.21,8,.85,16,.9,24.08,0,3.09.48,6.22.41,9.35,0,.83.7,1.4.53,2.24-1.63,2-2.82,4.22-2,7.4,0,.53,1.2.43,1.53,1.18h3c1.7-1.2,3.77-1.85,4.94-3.85.84-1.45,1.85-2.76,1.56-4.34.51-.8,1.43-.77,1.53-1.24,1-4,.7-7.69.83-11.39.19-6,.45-11.92.74-17.86.18-3.71.42-7.41.39-11.12,0-2.75.74-5.4.6-8.19,1.33-.54,2.56-.29,4-.25.25,2.09.59,4.08.71,6.09.25,4.58.32,9.18.47,13.76.23,7,1,14,.78,21.1a32.73,32.73,0,0,0,.73,7.61c.2.68,1.07.71,1.45,1.25.33,3.79,2.42,6.27,5.74,7.82.35.16.75.2.91.61h3c.36-.72,1.43-.72,1.54-1.26.81-3.19-.54-5.44-2.12-7.46a10,10,0,0,0,.59-2.1c0-3,.21-6,.45-9.07.39-5,.08-10,.62-14.94.46-4.37.32-8.79.49-13.18.25-6.55.78-13.1.8-19.66,0-.94-.29-2,.31-2.82a2.55,2.55,0,0,1,.59-.17c4.28-.27,5.5-1.57,5.57-5.75C260.14,64.9,259.77,53.54,259.28,42.18Z"/><circle class="cls-2" cx="235.49" cy="11.1" r="11.1" transform="translate(3.75 54.4) rotate(-13.28)"/></g></g></svg>