<svg xmlns="http://www.w3.org/2000/svg" viewBox="0 0 190 152.96"><defs><style>.cls-1{fill:#003478;}.cls-2{fill:#b3c8e6;}</style></defs><title>Asset 3</title><g id="Layer_2" data-name="Layer 2"><g id="Layer_1-2" data-name="Layer 1"><path class="cls-1" d="M48.38,42.26a66.6,66.6,0,0,0-1.2-10.16,10.85,10.85,0,0,0-11.1-8.93q-11.53,8.08-23.06,0A10.84,10.84,0,0,0,1.93,32.1,78.47,78.47,0,0,0,.72,42.26c-.28,4-.3,8-.49,12C-.15,62,0,69.82.08,77.59c0,2.69,1.67,4.29,4.38,4.55.65.07,1.39-.23,2.05.55.15,3.66.13,7.46.5,11.26.46,4.87.43,9.79.56,14.68.21,8,.85,16.06.9,24.11,0,3.11.48,6.24.41,9.37,0,.84.7,1.41.53,2.25-1.64,2-2.82,4.23-2,7.41,0,.53,1.2.43,1.53,1.19h2.95c1.71-1.21,3.78-1.86,4.95-3.86.84-1.46,1.86-2.77,1.57-4.35.51-.8,1.43-.77,1.53-1.24,1-4,.71-7.7.83-11.41.19-6,.45-11.94.74-17.9.18-3.7.42-7.42.39-11.13,0-2.75.74-5.41.6-8.2,1.33-.55,2.57-.3,4-.26.25,2.1.6,4.1.71,6.11.25,4.59.32,9.19.47,13.78.24,7,1,14.08.79,21.14a32.32,32.32,0,0,0,.72,7.62c.2.68,1.07.71,1.46,1.25.33,3.8,2.43,6.28,5.75,7.83.35.16.74.2.91.62h2.95c.36-.73,1.43-.72,1.55-1.26.81-3.21-.54-5.45-2.13-7.48a10.61,10.61,0,0,0,.6-2.11c0-3,.2-6.05.44-9.08.4-5,.09-10,.62-15,.47-4.37.33-8.8.5-13.2.25-6.56.78-13.12.8-19.69,0-1-.29-2,.31-2.83a2.55,2.55,0,0,1,.59-.17c4.29-.26,5.51-1.57,5.58-5.76C49.24,65,48.87,53.63,48.38,42.26Z"/><circle class="cls-1" cx="24.55" cy="11.12" r="11.12" transform="translate(-1.9 5.94) rotate(-13.28)"/><path class="cls-1" d="M118.83,42.26a66.6,66.6,0,0,0-1.2-10.16,10.85,10.85,0,0,0-11.1-8.93q-11.52,8.08-23.06,0A10.84,10.84,0,0,0,72.38,32.1a78.47,78.47,0,0,0-1.21,10.16c-.28,4-.3,8-.49,12-.38,7.75-.18,15.53-.15,23.3,0,2.69,1.68,4.29,4.38,4.55.65.07,1.39-.23,2,.55.15,3.66.13,7.46.5,11.26.46,4.87.43,9.79.56,14.68.21,8,.85,16.06.9,24.11,0,3.11.48,6.24.41,9.37,0,.84.7,1.41.53,2.25-1.64,2-2.82,4.23-2,7.41,0,.53,1.2.43,1.53,1.19h3c1.71-1.21,3.78-1.86,5-3.86.84-1.46,1.86-2.77,1.57-4.35.51-.8,1.43-.77,1.53-1.24,1-4,.71-7.7.83-11.41.19-6,.45-11.94.74-17.9.18-3.7.42-7.42.39-11.13,0-2.75.74-5.41.6-8.2,1.33-.55,2.57-.3,4-.26.25,2.1.6,4.1.71,6.11.25,4.59.32,9.19.47,13.78.24,7,1,14.08.79,21.14a32.32,32.32,0,0,0,.72,7.62c.2.68,1.07.71,1.46,1.25.33,3.8,2.43,6.28,5.75,7.83.35.16.74.2.91.62h3c.36-.73,1.43-.72,1.55-1.26.81-3.21-.54-5.45-2.13-7.48a10,10,0,0,0,.6-2.11c0-3,.2-6.05.44-9.08.4-5,.09-10,.62-15,.47-4.37.33-8.8.5-13.2.25-6.56.78-13.12.8-19.69,0-1-.29-2,.31-2.83a2.55,2.55,0,0,1,.59-.17c4.29-.26,5.51-1.57,5.58-5.76C119.69,65,119.32,53.63,118.83,42.26Z"/><circle class="cls-1" cx="95" cy="11.12" r="11.12" transform="translate(-0.01 22.12) rotate(-13.28)"/><path class="cls-2" d="M189.28,42.26a66.6,66.6,0,0,0-1.2-10.16A10.85,10.85,0,0,0,177,23.17q-11.52,8.08-23.06,0a10.84,10.84,0,0,0-11.09,8.93,78.47,78.47,0,0,0-1.21,10.16c-.28,4-.3,8-.49,12-.38,7.75-.18,15.53-.15,23.3,0,2.69,1.68,4.29,4.38,4.55.65.07,1.39-.23,2,.55.15,3.66.13,7.46.5,11.26.46,4.87.43,9.79.56,14.68.21,8,.85,16.06.9,24.11,0,3.11.48,6.24.41,9.37,0,.84.7,1.41.53,2.25-1.64,2-2.82,4.23-2,7.41,0,.53,1.2.43,1.53,1.19h2.95c1.71-1.21,3.79-1.86,5-3.86.85-1.46,1.86-2.77,1.57-4.35.51-.8,1.43-.77,1.53-1.24,1-4,.71-7.7.83-11.41.19-6,.45-11.94.74-17.9.18-3.7.42-7.42.39-11.13,0-2.75.74-5.41.6-8.2,1.33-.55,2.57-.3,4-.26.25,2.1.6,4.1.71,6.11.25,4.59.32,9.19.47,13.78.24,7,1,14.08.79,21.14a32.32,32.32,0,0,0,.72,7.62c.2.68,1.07.71,1.46,1.25.33,3.8,2.43,6.28,5.75,7.83.35.16.74.2.91.62h3c.36-.73,1.43-.72,1.55-1.26.81-3.21-.54-5.45-2.13-7.48a10,10,0,0,0,.6-2.11c0-3,.2-6.05.44-9.08.4-5,.09-10,.62-15,.47-4.37.33-8.8.5-13.2.25-6.56.78-13.12.8-19.69,0-1-.29-2,.31-2.83a2.55,2.55,0,0,1,.59-.17c4.29-.26,5.51-1.57,5.58-5.76C190.14,65,189.77,53.63,189.28,42.26Z"/><circle class="cls-2" cx="165.45" cy="11.12" r="11.12" transform="translate(1.87 38.31) rotate(-13.28)"/></g></g></svg>