<svg xmlns="http://www.w3.org/2000/svg" viewBox="0 0 330 152.54"><defs><style>.cls-1{fill:#003478;}.cls-2{fill:#b3c8e6;}</style></defs><title>Asset 1</title><g id="Layer_2" data-name="Layer 2"><g id="Layer_1-2" data-name="Layer 1"><path class="cls-1" d="M48.25,42.14A66.08,66.08,0,0,0,47.05,32,10.82,10.82,0,0,0,36,23.11q-11.49,8.07-23,0A10.82,10.82,0,0,0,1.92,32,79.62,79.62,0,0,0,.72,42.14c-.28,4-.3,8-.5,12C-.15,61.87,0,69.63.08,77.38c0,2.68,1.67,4.27,4.37,4.54.65.06,1.38-.23,2,.54.16,3.65.13,7.44.5,11.24.46,4.85.43,9.76.56,14.63.21,8,.85,16,.9,24,0,3.1.47,6.23.41,9.35,0,.83.7,1.4.53,2.24-1.64,2-2.82,4.22-2,7.39,0,.53,1.2.43,1.53,1.18h2.94c1.7-1.2,3.77-1.85,4.93-3.85.85-1.45,1.86-2.76,1.57-4.33.51-.8,1.43-.78,1.53-1.24,1-4,.7-7.68.82-11.38q.3-8.93.74-17.85c.18-3.7.42-7.4.39-11.1,0-2.75.74-5.39.6-8.18,1.33-.55,2.56-.3,3.95-.25.25,2.08.59,4.08.7,6.08.26,4.58.33,9.17.48,13.74.23,7,.95,14,.78,21.09a32.68,32.68,0,0,0,.72,7.6c.2.68,1.07.71,1.46,1.25.33,3.78,2.42,6.26,5.73,7.81.35.16.74.2.91.61h2.94c.36-.72,1.43-.72,1.55-1.26.8-3.19-.54-5.43-2.13-7.45a10.07,10.07,0,0,0,.6-2.1c0-3,.2-6,.44-9.06.4-5,.09-9.95.62-14.93.47-4.36.32-8.78.49-13.17.26-6.54.79-13.08.8-19.63,0-1-.29-2,.31-2.83a3.16,3.16,0,0,1,.59-.17c4.28-.26,5.5-1.56,5.57-5.74C49.1,64.84,48.74,53.49,48.25,42.14Z"/><circle class="cls-1" cx="24.48" cy="11.09" r="11.09" transform="translate(-1.89 5.92) rotate(-13.28)"/><path class="cls-2" d="M118.5,42.14A64.85,64.85,0,0,0,117.31,32a10.82,10.82,0,0,0-11.07-8.91q-11.49,8.07-23,0A10.82,10.82,0,0,0,72.18,32,79.62,79.62,0,0,0,71,42.14c-.28,4-.31,8-.5,12-.37,7.73-.18,15.49-.14,23.24,0,2.68,1.67,4.27,4.37,4.54.65.06,1.38-.23,2,.54.15,3.65.13,7.44.5,11.24.46,4.85.43,9.76.56,14.63.21,8,.85,16,.9,24,0,3.1.47,6.23.41,9.35,0,.83.7,1.4.53,2.24-1.64,2-2.82,4.22-2,7.39,0,.53,1.2.43,1.53,1.18h2.94c1.7-1.2,3.77-1.85,4.93-3.85.85-1.45,1.86-2.76,1.57-4.33.51-.8,1.43-.78,1.52-1.24,1-4,.71-7.68.83-11.38.19-6,.45-11.9.74-17.85.18-3.7.42-7.4.39-11.1,0-2.75.74-5.39.6-8.18a8.74,8.74,0,0,1,3.94-.25c.26,2.08.6,4.08.71,6.08.26,4.58.33,9.17.48,13.74.23,7,1,14,.78,21.09a32.68,32.68,0,0,0,.72,7.6c.2.68,1.07.71,1.46,1.25.33,3.78,2.41,6.26,5.73,7.81.35.16.74.2.91.61h2.94c.36-.72,1.43-.72,1.55-1.26.8-3.19-.55-5.43-2.13-7.45a10.72,10.72,0,0,0,.6-2.1c0-3,.2-6,.44-9.06.4-5,.09-9.95.62-14.93.46-4.36.32-8.78.49-13.17.25-6.54.78-13.08.8-19.63,0-1-.29-2,.31-2.83a3.16,3.16,0,0,1,.59-.17c4.28-.26,5.5-1.56,5.57-5.74C119.36,64.84,119,53.49,118.5,42.14Z"/><circle class="cls-2" cx="94.74" cy="11.09" r="11.09" transform="translate(-0.01 22.06) rotate(-13.28)"/><path class="cls-2" d="M188.76,42.14A64.85,64.85,0,0,0,187.57,32a10.82,10.82,0,0,0-11.07-8.91q-11.5,8.07-23,0A10.82,10.82,0,0,0,142.44,32a76.15,76.15,0,0,0-1.2,10.12c-.28,4-.31,8-.5,12-.37,7.73-.18,15.49-.14,23.24,0,2.68,1.67,4.27,4.36,4.54.66.06,1.39-.23,2,.54.15,3.65.13,7.44.5,11.24.46,4.85.42,9.76.55,14.63.22,8,.86,16,.91,24,0,3.1.47,6.23.4,9.35,0,.83.7,1.4.53,2.24-1.63,2-2.82,4.22-2,7.39,0,.53,1.19.43,1.53,1.18h2.94c1.7-1.2,3.77-1.85,4.93-3.85.84-1.45,1.86-2.76,1.57-4.33.51-.8,1.42-.78,1.52-1.24,1-4,.71-7.68.83-11.38.19-6,.45-11.9.74-17.85.18-3.7.42-7.4.39-11.1,0-2.75.74-5.39.6-8.18a8.74,8.74,0,0,1,3.94-.25c.25,2.08.6,4.08.71,6.08.26,4.58.32,9.17.48,13.74.23,7,.95,14,.78,21.09a32.15,32.15,0,0,0,.72,7.6c.2.68,1.07.71,1.45,1.25.34,3.78,2.42,6.26,5.74,7.81.35.16.74.2.91.61h2.94c.36-.72,1.43-.72,1.54-1.26.81-3.19-.54-5.43-2.12-7.45a10.72,10.72,0,0,0,.6-2.1c0-3,.2-6,.44-9.06.39-5,.09-9.95.62-14.93.46-4.36.32-8.78.49-13.17.25-6.54.78-13.08.8-19.63,0-1-.29-2,.31-2.83a3.31,3.31,0,0,1,.58-.17c4.29-.26,5.51-1.56,5.57-5.74C189.62,64.84,189.25,53.49,188.76,42.14Z"/><circle class="cls-2" cx="165" cy="11.09" r="11.09" transform="translate(1.87 38.21) rotate(-13.28)"/><path class="cls-2" d="M259,42.14A64.86,64.86,0,0,0,257.82,32a10.8,10.8,0,0,0-11.06-8.91q-11.5,8.07-23,0A10.8,10.8,0,0,0,212.7,32a77.86,77.86,0,0,0-1.21,10.12c-.28,4-.3,8-.49,12-.37,7.73-.18,15.49-.14,23.24,0,2.68,1.67,4.27,4.36,4.54.65.06,1.39-.23,2.05.54.15,3.65.13,7.44.49,11.24.47,4.85.43,9.76.56,14.63.22,8,.85,16,.9,24,0,3.1.48,6.23.41,9.35,0,.83.7,1.4.53,2.24-1.63,2-2.82,4.22-2,7.39,0,.53,1.19.43,1.52,1.18h3c1.7-1.2,3.77-1.85,4.93-3.85.84-1.45,1.86-2.76,1.57-4.33.51-.8,1.42-.78,1.52-1.24,1-4,.7-7.68.83-11.38.19-6,.45-11.9.74-17.85.18-3.7.42-7.4.39-11.1,0-2.75.74-5.39.6-8.18,1.32-.55,2.56-.3,3.94-.25.25,2.08.6,4.08.71,6.08.25,4.58.32,9.17.47,13.74.24,7,1,14,.78,21.09a32.7,32.7,0,0,0,.73,7.6c.2.68,1.07.71,1.45,1.25.33,3.78,2.42,6.26,5.74,7.81.35.16.74.2.9.61h3c.36-.72,1.42-.72,1.54-1.26.81-3.19-.54-5.43-2.12-7.45a10,10,0,0,0,.59-2.1c0-3,.21-6,.45-9.06.39-5,.08-9.95.62-14.93.46-4.36.32-8.78.49-13.17.25-6.54.78-13.08.8-19.63,0-1-.29-2,.31-2.83a3.31,3.31,0,0,1,.58-.17c4.29-.26,5.51-1.56,5.57-5.74C259.88,64.84,259.51,53.49,259,42.14Z"/><circle class="cls-2" cx="235.26" cy="11.09" r="11.09" transform="translate(3.75 54.35) rotate(-13.28)"/><path class="cls-2" d="M329.28,42.14A64.86,64.86,0,0,0,328.08,32,10.81,10.81,0,0,0,317,23.11q-11.5,8.07-23,0A10.8,10.8,0,0,0,283,32a77.86,77.86,0,0,0-1.21,10.12c-.28,4-.3,8-.49,12-.37,7.73-.18,15.49-.14,23.24,0,2.68,1.66,4.27,4.36,4.54.65.06,1.39-.23,2,.54.15,3.65.13,7.44.49,11.24.47,4.85.43,9.76.56,14.63.22,8,.85,16,.9,24,0,3.1.48,6.23.41,9.35,0,.83.7,1.4.53,2.24-1.63,2-2.82,4.22-2,7.39,0,.53,1.2.43,1.53,1.18h2.95c1.7-1.2,3.77-1.85,4.93-3.85.84-1.45,1.85-2.76,1.56-4.33.51-.8,1.43-.78,1.53-1.24,1-4,.7-7.68.82-11.38q.3-8.93.75-17.85c.18-3.7.42-7.4.39-11.1,0-2.75.74-5.39.59-8.18a8.79,8.79,0,0,1,3.95-.25c.25,2.08.6,4.08.71,6.08.25,4.58.32,9.17.47,13.74.23,7,1,14,.78,21.09a32.7,32.7,0,0,0,.73,7.6c.2.68,1.06.71,1.45,1.25.33,3.78,2.42,6.26,5.74,7.81.35.16.74.2.9.61h2.95c.35-.72,1.42-.72,1.54-1.26.81-3.19-.54-5.43-2.12-7.45a10,10,0,0,0,.59-2.1c0-3,.2-6,.45-9.06.39-5,.08-9.95.61-14.93.47-4.36.33-8.78.5-13.17.25-6.54.78-13.08.8-19.63,0-1-.29-2,.31-2.83a3.31,3.31,0,0,1,.58-.17c4.29-.26,5.5-1.56,5.57-5.74C330.14,64.84,329.77,53.49,329.28,42.14Z"/><circle class="cls-2" cx="305.52" cy="11.09" r="11.09" transform="translate(5.63 70.49) rotate(-13.28)"/></g></g></svg>