<?xml version="1.0" encoding="UTF-8"?>
<svg width="100px" height="100px" viewBox="0 0 100 100" version="1.1" xmlns="http://www.w3.org/2000/svg" xmlns:xlink="http://www.w3.org/1999/xlink">
    <!-- Generator: Sketch 51.2 (57519) - http://www.bohemiancoding.com/sketch -->
    <title>Icon/lightbulb</title>
    <desc>Created with Sketch.</desc>
    <defs></defs>
    <g id="Page-1" stroke="none" stroke-width="1" fill="none" fill-rule="evenodd">
        <g id="1A.1-Landing-Page-Destop-2000px" transform="translate(-770.000000, -916.000000)">
            <g id="Icon/lightbulb" transform="translate(770.000000, 916.000000)">
                <g id="light-bulb">
                    <circle id="Oval-3-Copy-2" fill="#1A3670" fill-rule="nonzero" cx="50" cy="50" r="50"></circle>
                    <g id="DLS_Idea" transform="translate(20.909091, 18.181818)" fill="#FFFFFF" fill-rule="nonzero">
                        <path d="M29.0991736,8.80785124 C18.7293388,8.80785124 10.3119835,17.2252066 10.3119835,27.5950413 C10.3119835,31.6012397 11.5702479,35.303719 13.7107438,38.3409091 C15.6632231,41.3780992 20.2479339,49.1735537 20.2479339,49.1735537 L37.6033058,49.1735537 C37.6033058,49.1735537 42.8822314,40.9586777 44.6756198,38.1095041 C44.6756198,38.1095041 44.661157,38.1095041 44.661157,38.1095041 C46.6859504,35.1157025 47.8863636,31.5 47.8863636,27.5950413 C47.8863636,17.2252066 39.4690083,8.80785124 29.0991736,8.80785124 Z M20.2479339,56.4049587 L37.6033058,56.4049587 L37.6033058,52.0661157 L20.2479339,52.0661157 L20.2479339,56.4049587 Z M20.2479339,63.6363636 L37.6033058,63.6363636 L37.6033058,59.2975207 L20.2479339,59.2975207 L20.2479339,63.6363636 Z M30.3863636,0 L27.4793388,0 L27.4793388,5.78512397 L30.3863636,5.78512397 L30.3863636,0 Z M14.2747934,3.52892562 L11.7582645,4.97520661 L14.6508264,9.97933884 L17.1673554,8.53305785 L14.2747934,3.52892562 Z M2.09710744,14.6508264 L0.650826446,17.1673554 L5.65495868,20.0599174 L7.10123967,17.5433884 L2.09710744,14.6508264 Z M57.214876,17.1673554 L55.768595,14.6508264 L50.7644628,17.5433884 L52.2107438,20.0599174 L57.214876,17.1673554 Z M46.0929752,4.98966942 L43.5764463,3.54338843 L40.6838843,8.54752066 L43.2004132,9.99380165 L46.0929752,4.98966942 Z" id="Shape"></path>
                    </g>
                </g>
            </g>
        </g>
    </g>
</svg>