<?xml version="1.0" encoding="UTF-8"?>
<svg width="100px" height="100px" viewBox="0 0 100 100" version="1.1" xmlns="http://www.w3.org/2000/svg" xmlns:xlink="http://www.w3.org/1999/xlink">
    <!-- Generator: Sketch 51.2 (57519) - http://www.bohemiancoding.com/sketch -->
    <title>Icon/pillow-head</title>
    <desc>Created with Sketch.</desc>
    <defs></defs>
    <g id="Page-1" stroke="none" stroke-width="1" fill="none" fill-rule="evenodd">
        <g id="1A.1-Landing-Page-Destop-2000px" transform="translate(-1250.000000, -916.000000)">
            <g id="Icon/pillow-head" transform="translate(1250.000000, 916.000000)">
                <g id="pillow-head">
                    <circle id="Oval-3-Copy-3" fill="#1A3670" fill-rule="nonzero" cx="50" cy="50" r="50"></circle>
                    <g id="DLS_PillowHead" transform="translate(20.000000, 22.727273)" fill="#FFFFFF" fill-rule="nonzero">
                        <path d="M11.7,41.2363636 C11.1954545,41.3863636 10.7318182,41.6045455 10.2818182,41.8363636 C8.48181818,41.4681818 6.85909091,41.0318182 5.41363636,40.5681818 C5.44090909,40.6772727 5.45454545,40.7863636 5.45454545,40.9090909 C5.45454545,42.4090909 4.22727273,43.6363636 2.72727273,43.6363636 C1.22727273,43.6363636 0,42.4090909 0,40.9090909 C0,39.4090909 1.22727273,38.1818182 2.72727273,38.1818182 C2.74090909,38.1818182 2.75454545,38.1818182 2.75454545,38.1818182 C1.88181818,33.4772727 1.36363636,27.8590909 1.36363636,21.8181818 C1.36363636,15.7772727 1.88181818,10.1590909 2.75454545,5.45454545 C2.75454545,5.45454545 2.74090909,5.45454545 2.72727273,5.45454545 C1.22727273,5.45454545 0,4.22727273 0,2.72727273 C0,1.22727273 1.22727273,0 2.72727273,0 C4.22727273,0 5.45454545,1.22727273 5.45454545,2.72727273 C5.45454545,2.85 5.44090909,2.95909091 5.41363636,3.06818182 C11.1954545,1.2 20.0590909,0 30,0 C39.9409091,0 48.8045455,1.2 54.5863636,3.06818182 C54.5590909,2.95909091 54.5454545,2.85 54.5454545,2.72727273 C54.5454545,1.22727273 55.7727273,0 57.2727273,0 C58.7727273,0 60,1.22727273 60,2.72727273 C60,4.22727273 58.7727273,5.45454545 57.2727273,5.45454545 C57.2590909,5.45454545 57.2454545,5.45454545 57.2454545,5.45454545 C58.1181818,10.1590909 58.6363636,15.7772727 58.6363636,21.8181818 C58.6363636,27.8590909 58.1181818,33.4772727 57.2454545,38.1818182 C57.2590909,38.1818182 57.2727273,38.1818182 57.2727273,38.1818182 C58.7727273,38.1818182 60,39.4090909 60,40.9090909 C60,42.4090909 58.7727273,43.6363636 57.2727273,43.6363636 C55.7727273,43.6363636 54.5454545,42.4090909 54.5454545,40.9090909 C54.5454545,40.7863636 54.5590909,40.6772727 54.5863636,40.5681818 C53.0863636,41.0590909 51.3545455,41.4954545 49.4727273,41.8772727 C48.9272727,41.5909091 48.3954545,41.3727273 47.9045455,41.2227273 C46.7590909,40.8136364 44.4409091,40.2545455 41.0590909,39.4363636 C39.8045455,39.1363636 38.25,38.7681818 37.1590909,38.4818182 C37.1590909,38.3590909 37.1590909,38.2363636 37.1454545,38.0863636 C38.6454545,36.5318182 40.4727273,33.9681818 40.8272727,30.3954545 L40.8818182,29.85 C41.25,26.1545455 41.8772727,19.9636364 38.4136364,15.8318182 C36.5318182,13.5954545 33.8045455,12.4363636 30.2863636,12.1909091 C30.2181818,12.1909091 30.15,12.2863636 30.0954545,12.2863636 L29.9181818,12.2863636 C29.85,12.2863636 29.7818182,12.1909091 29.7272727,12.1909091 C26.2090909,12.45 23.4681818,13.65 21.6,15.8863636 C18.1227273,20.0181818 18.75,26.1954545 19.1181818,29.8909091 L19.1727273,30.4227273 C19.5136364,33.9272727 21.3,36.4772727 22.7863636,38.0181818 C22.7727273,38.1818182 22.7727273,38.3181818 22.7590909,38.4545455 C21.6545455,38.7409091 20.0318182,39.1227273 18.7227273,39.4363636 C15.2454545,40.2545455 12.8590909,40.8272727 11.7,41.2363636 Z M51.6818182,49.05 C50.6181818,45.75 48.7909091,44.3318182 47.0318182,43.8136364 C44.9181818,43.0363636 35.3863636,41.0045455 34.7590909,40.5818182 C34.4318182,40.35 34.4045455,38.5636364 34.4045455,36.9136364 C35.5909091,35.8909091 37.7590909,33.6818182 38.1,30.2181818 C38.5909091,25.4181818 39.9681818,15 30.0954545,15 L29.9181818,15 C20.0318182,15 21.4090909,25.4181818 21.8863636,30.2318182 C22.2272727,33.6409091 24.3409091,35.8772727 25.5409091,36.9136364 C25.5409091,38.5772727 25.2272727,40.3909091 24.9,40.6090909 C24.2590909,41.0454545 15,43.0636364 12.2727273,43.8272727 C10.9090909,44.3454545 9.02727273,45.7636364 7.97727273,49.0636364 C7.29545455,51.1363636 6.84545455,52.95 6.54545455,54.5454545 L53.1409091,54.5454545 C52.8272727,52.95 52.35,51.1363636 51.6818182,49.05 Z" id="Shape"></path>
                    </g>
                </g>
            </g>
        </g>
    </g>
</svg>