<?xml version="1.0" encoding="UTF-8"?>
<svg width="100px" height="100px" viewBox="0 0 100 100" version="1.1" xmlns="http://www.w3.org/2000/svg" xmlns:xlink="http://www.w3.org/1999/xlink">
    <!-- Generator: Sketch 51.2 (57519) - http://www.bohemiancoding.com/sketch -->
    <title>Icon/broken-pillow</title>
    <desc>Created with Sketch.</desc>
    <defs></defs>
    <g id="Page-1" stroke="none" stroke-width="1" fill="none" fill-rule="evenodd">
        <g id="1A.1-Landing-Page-Destop-2000px" transform="translate(-530.000000, -916.000000)">
            <g id="Icon/broken-pillow" transform="translate(530.000000, 916.000000)">
                <g id="broken-pillow">
                    <circle id="Oval-3-Copy" fill="#1A3670" fill-rule="nonzero" cx="50" cy="50" r="50"></circle>
                    <g id="DLS_PillowInterrupted" transform="translate(18.181818, 18.181818)" fill="#FFFFFF" fill-rule="nonzero">
                        <path d="M63.6363636,60.7438017 C63.6363636,62.3347107 62.3347107,63.6363636 60.7438017,63.6363636 C59.1528926,63.6363636 57.8512397,62.3347107 57.8512397,60.7438017 C57.8512397,60.6136364 57.8657025,60.4979339 57.8946281,60.3822314 C51.7623967,62.3636364 42.3615702,63.6363636 31.8181818,63.6363636 C30.2272727,63.6363636 28.6797521,63.5929752 27.1466942,63.5495868 L37.1549587,17.4855372 C45.5,17.8326446 52.8181818,18.9752066 57.8801653,20.6095041 C57.8657025,20.4938017 57.8512397,20.3780992 57.8512397,20.2479339 C57.8512397,18.6570248 59.1528926,17.3553719 60.7438017,17.3553719 C62.3347107,17.3553719 63.6363636,18.6570248 63.6363636,20.2479339 C63.6363636,21.838843 62.3347107,23.1404959 60.7438017,23.1404959 C60.7293388,23.1404959 60.714876,23.1404959 60.714876,23.1404959 C61.6404959,28.1301653 62.1900826,34.088843 62.1900826,40.4958678 C62.1900826,46.9028926 61.6404959,52.8615702 60.714876,57.8512397 C60.7293388,57.8512397 60.7438017,57.8512397 60.7438017,57.8512397 C62.3347107,57.8512397 63.6363636,59.1528926 63.6363636,60.7438017 Z M31.8181818,0 C21.2747934,0 11.8739669,1.27272727 5.74173554,3.25413223 C5.77066116,3.13842975 5.78512397,3.02272727 5.78512397,2.89256198 C5.78512397,1.30165289 4.48347107,0 2.89256198,0 C1.30165289,0 0,1.30165289 0,2.89256198 C0,4.48347107 1.30165289,5.78512397 2.89256198,5.78512397 C2.90702479,5.78512397 2.9214876,5.78512397 2.9214876,5.78512397 C1.99586777,10.7747934 1.44628099,16.7334711 1.44628099,23.1404959 C1.44628099,29.5475207 1.99586777,35.5061983 2.9214876,40.4958678 C2.9214876,40.4958678 2.90702479,40.4958678 2.89256198,40.4958678 C1.30165289,40.4958678 0,41.7975207 0,43.3884298 C0,44.9793388 1.30165289,46.2809917 2.89256198,46.2809917 C4.48347107,46.2809917 5.78512397,44.9793388 5.78512397,43.3884298 C5.78512397,43.2582645 5.77066116,43.142562 5.74173554,43.0268595 C10.803719,44.661157 18.1363636,45.803719 26.4669421,46.1508264 L36.4752066,0.0867768595 C34.9566116,0.0433884298 33.4090909,0 31.8181818,0 Z" id="Shape"></path>
                    </g>
                </g>
            </g>
        </g>
    </g>
</svg>