<?xml version="1.0" encoding="UTF-8"?>
<svg width="100px" height="100px" viewBox="0 0 100 100" version="1.1" xmlns="http://www.w3.org/2000/svg" xmlns:xlink="http://www.w3.org/1999/xlink">
    <!-- Generator: Sketch 51.2 (57519) - http://www.bohemiancoding.com/sketch -->
    <title>Icon/teach</title>
    <desc>Created with Sketch.</desc>
    <defs></defs>
    <g id="Page-1" stroke="none" stroke-width="1" fill="none" fill-rule="evenodd">
        <g id="1A.1-Landing-Page-Destop-2000px" transform="translate(-1009.000000, -916.000000)">
            <g id="Icon/teach" transform="translate(1009.000000, 916.000000)">
                <g id="Group-5-Copy">
                    <circle id="Oval-3-Copy-2" fill="#1A3670" fill-rule="nonzero" cx="50" cy="50" r="50"></circle>
                    <g id="DLS_EducationTeaching" transform="translate(20.000000, 20.000000)" fill="#FFFFFF" fill-rule="nonzero">
                        <path d="M59.1044776,29.5522388 L59.1044776,0 L26.8656716,0 L26.8656716,29.5522388 L41.9910448,29.5522388 L39.2910448,34.9656716 C39.1835821,34.9522388 39.0761194,34.9253731 38.9552239,34.9253731 C36.8059701,34.9253731 35.0731343,36.6044776 34.9522388,38.7268657 C32.9507463,39.9492537 31.1776119,40.2447761 30.3179104,40.2985075 L22.8358209,40.2985075 L22.8358209,40.3522388 C22.7820896,40.338806 22.7283582,40.338806 22.6746269,40.3253731 C20.619403,42.2865672 17.838806,43.4955224 14.7761194,43.4955224 C11.7134328,43.4955224 8.93283582,42.2865672 6.87761194,40.3253731 C2.98208955,40.9567164 0,44.3283582 0,48.4119403 L0,59.0776119 L26.8656716,59.1044776 L26.8656716,45.6716418 L29.4716418,45.6716418 C29.5656716,45.6716418 29.7,45.6850746 29.8746269,45.6850746 C31.2044776,45.6850746 34.6567164,45.4029851 38.3641791,42.9313433 C38.5522388,42.958209 38.7537313,42.9850746 38.9552239,42.9850746 C41.1850746,42.9850746 42.9850746,41.1850746 42.9850746,38.9552239 C42.9850746,37.8134328 42.5014925,36.7925373 41.7492537,36.0537313 L45,29.5522388 L59.1044776,29.5522388 Z M30.8955224,25.5223881 L30.8955224,4.02985075 L55.0746269,4.02985075 L55.0746269,25.5223881 L47.0149254,25.5223881 L49.7014925,20.1492537 L47.2970149,18.9537313 L44.0059701,25.5223881 L30.8955224,25.5223881 Z M6.71641791,32.238806 C6.71641791,27.7925373 10.3298507,24.1791045 14.7761194,24.1791045 C19.2223881,24.1791045 22.8358209,27.7925373 22.8358209,32.238806 C22.8358209,36.6850746 19.2223881,40.2985075 14.7761194,40.2985075 C10.3298507,40.2985075 6.71641791,36.6850746 6.71641791,32.238806 Z" id="Shape"></path>
                    </g>
                </g>
            </g>
        </g>
    </g>
</svg>